<?xml version="1.0" encoding="UTF-8"?>
<svg xmlns="http://www.w3.org/2000/svg" xmlns:xlink="http://www.w3.org/1999/xlink" width="263" height="162" viewBox="0 0 263 162">
  <defs>
    <clipPath id="clip-path">
      <rect id="Rectangle_77" data-name="Rectangle 77" width="263" height="162" transform="translate(-3034 1085)" fill="none"></rect>
    </clipPath>
  </defs>
  <g id="Mask_Group_9" data-name="Mask Group 9" transform="translate(3034 -1085)" clip-path="url(#clip-path)">
    <g id="Group_64" data-name="Group 64" transform="translate(-2996 1101)">
      <path id="Path_139" data-name="Path 139" d="M-4542.061,94.051l-.094-.006c-1.113-.064-27.354-1.588-34.078-2.485-2.826-.377-3.833-1.888-4.18-3.089-1.091-3.78,3.169-9.515,6.393-12.2a6.4,6.4,0,0,1,9.151.379l.127.171h0s1.543,2.091,7.29,3.677c5.3,1.461,7.309-2.084,7.392-2.236l.1-.176.148-.154,4.366-4.358c7.1-5.944,21.75-19.51,40.144-43.593,11.24-14.717,20.176-28.8,21.731-34.24.635-2.222.51-3.791-.371-4.664-1.9-1.883-7.168-.915-9.027-.388l-35.36,17.233c-1.556,1.013-20.155,12.868-28.968,6.436-2.439-1.779-3.623-3.864-3.522-6.2.224-5.126,6.938-9.237,7.224-9.41l.095-.057.1-.042c3.262-1.323,79.95-32.429,85.306-34.437a16.972,16.972,0,0,1,10.977-.272c4.018.714,34.265,6.1,36.307,6.779,2.06.687,7.1,2.876,7.314,2.969l.192.083.159.136c.093.079,9.321,7.963,14.911,13.329,5.782,5.551,4.119,11,3.75,11.993-.174.789-1.271,5.725-2.914,12.092s-3.5,9.826-8.556,9.826c-3.219,0-4.084-3.186-4.41-4.385a83.258,83.258,0,0,1-1.575-11.2c-.173-1.656-.362-3.472-.583-5.456-1.056-9.507-2.9-11.292-3.3-11.572l-.245.1-.513-.2c-.28-.108-28.083-10.764-35.952-12.075-3.924-.654-5.475-.041-6.05.382a1.022,1.022,0,0,0-.414.525l.045.359-.18.19-4.276,9.226c-1.213,2.61-29.75,64-33.1,70.475-3.517,6.8-7.281,7.073-8,7.058-.839.016-11.816.219-14.723,0-1.381-.112-2.658,2.345-3.064,3.549l-.045.134-.072.125c-.071.123-7.192,12.378-9.831,18.314a12.248,12.248,0,0,1-9.722,7.352ZM-4569.547,77.3a4.178,4.178,0,0,0-2.679,1.119c-2.965,2.471-6.083,7.234-5.495,9.271.062.216.252.875,1.858,1.089,6.4.854,31.854,2.347,33.759,2.458a9.475,9.475,0,0,0,7.3-5.688c2.59-5.828,9.113-17.111,9.9-18.467.364-1.017,2.2-5.589,5.887-5.31,2.824.218,14.374,0,14.49,0l.1,0c.326-.032,2.794-.445,5.43-5.541,3.323-6.424,32.75-69.73,33.048-70.369l4.18-9.019a3.617,3.617,0,0,1,1.286-2.17c1.623-1.375,4.452-1.737,8.41-1.078,7.761,1.293,32.814,10.816,36.162,12.1a2.741,2.741,0,0,1,1.507.422c2.268,1.359,3.794,5.835,4.667,13.684.221,1.991.411,3.813.584,5.475.946,9.068,1.439,13.078,3.2,13.078,2.326,0,3.989-.538,5.843-7.724,1.772-6.865,2.9-12.046,2.913-12.1l.029-.134.055-.126c.068-.166,1.737-4.4-3.061-9.005-5.128-4.922-13.382-12.015-14.629-13.083-.95-.41-5.165-2.222-6.893-2.8-1.432-.475-22.329-4.267-36.026-6.7l-.13-.023-.124-.047a14.279,14.279,0,0,0-9.134.228C-4472.341-31.2-4548.895-.152-4552.24,1.2c-1.65,1.025-5.656,4.126-5.782,7.081-.058,1.354.719,2.6,2.375,3.807,3.77,2.752,10.483.9,15.451-1.133a69.218,69.218,0,0,0,10.4-5.43l.156-.089,35.653-17.375.111-.033c.853-.254,8.438-2.376,11.9,1.05,1.664,1.647,2.033,4.146,1.1,7.427-3.209,11.23-34.935,55.882-62.723,79.172l-4.093,4.093c-1.165,1.993-4.679,5.029-10.5,3.423-6.259-1.727-8.36-4.118-8.82-4.745A3.606,3.606,0,0,0-4569.547,77.3Z" transform="translate(4580.587 36.838)" fill="#fff"></path>
    </g>
  </g>
</svg>
