<?xml version="1.0" encoding="UTF-8"?>
<svg xmlns="http://www.w3.org/2000/svg" xmlns:xlink="http://www.w3.org/1999/xlink" width="263" height="162" viewBox="0 0 263 162">
  <defs>
    <clipPath id="clip-path">
      <rect id="Rectangle_78" data-name="Rectangle 78" width="263" height="162" transform="translate(-2565 1085)" fill="none"></rect>
    </clipPath>
  </defs>
  <g id="Mask_Group_10" data-name="Mask Group 10" transform="translate(2565 -1085)" clip-path="url(#clip-path)">
    <g id="Group_65" data-name="Group 65" transform="translate(-2534 1105)">
      <path id="Path_140" data-name="Path 140" d="M-4545.346,531.509c-.419,0-.847-.005-1.286-.015-14.125-.329-36.643-1.647-36.868-1.661h0c-.823-.042-7.531-.684-8.933-10.149-.152-1.028-.277-2-.387-2.859-.857-6.7-1.088-8.505-10-9.554-11.174-1.315-40.883-5.932-41.182-5.978l-.129-.02-.124-.044c-.334-.119-8.217-2.973-9.664-8.943-.794-3.279.486-6.728,3.8-10.254,7.454-7.92,14.829-1.985,20.754,2.785,3.518,2.831,6.838,5.509,9.735,5.4a44.27,44.27,0,0,0,5.691-.655c5.523-.894,9.891-1.6,18.058,5.217l41.751,24.522a10.228,10.228,0,0,0,6.9,1.348,8.732,8.732,0,0,0,5.408-4.239c1.957-3.107,2.528-5.8,1.747-8.243-1.189-3.715-5.562-7.078-13.366-10.28-5.593-2.3-22.729-7.621-42.57-13.788-25.959-8.068-55.382-17.213-70.187-23.023-23.24-9.119-36.087-12.5-44.589-14.738-1.07-.282-2.075-.546-3.028-.8-5.8-1.562-10.478-5.516-11.634-9.839a7.446,7.446,0,0,1,2.052-7.431c5.443-5.443,18.937-2.819,19.509-2.7l.393.078.292.275a6.087,6.087,0,0,0,4.155,1.4c1.914-.133,3.809-1.3,5.633-3.463l4.546-9.74a8.369,8.369,0,0,1,4.383-4.409c3.038-1.321,6.875-.978,11.4,1.02,11.214,4.947,39.4,20.946,40.594,21.624l.317.18.11.191c.238.227,2.57,2.145,9.391-2.315,8.185-5.351,10.045-4.6,15.864-.883.579.37,1.205.77,1.894,1.2,6.92,4.284,31.529,21.536,32.574,22.268l.256.18.155.272a26.572,26.572,0,0,1,2.838,12.3c0,6.881,0,11.852,7.907,13.9,8.592,2.228,24.429,6.035,25.464,6.284a12.531,12.531,0,0,1,7.521,4.848c2.945,3.921,3.913,9.516,2.878,16.63C-4527.951,525.554-4531.137,531.509-4545.346,531.509Zm-98.084-32.963c2.247.349,30.211,4.68,40.938,5.941,5.318.626,8.2,1.708,9.935,3.736,1.72,2.007,2.055,4.624,2.518,8.245.113.887.231,1.8.379,2.8,1.122,7.567,6.048,7.756,6.257,7.76l.068,0c.226.013,22.695,1.329,36.77,1.657,12.851.3,15.786-3.147,18.482-21.688,2.4-16.531-7.672-18.248-8.1-18.313l-.125-.025c-.166-.04-16.7-4.01-25.566-6.308-10-2.594-10-9.722-10-16.615a24.8,24.8,0,0,0-2.335-10.658c-2.8-1.958-25.7-17.983-32.161-21.984-.7-.434-1.338-.841-1.927-1.217-5.041-3.219-5.816-3.715-12.823.867-8.407,5.5-12,2.906-12.941,1.919-2.632-1.491-29.545-16.708-40.135-21.38-3.756-1.657-6.819-2.006-9.106-1.036a5.487,5.487,0,0,0-2.941,2.88l-.05.121-4.719,10.113-.114.138c-2.384,2.886-5,4.438-7.766,4.611a8.877,8.877,0,0,1-5.873-1.873c-3.751-.688-13.109-1.522-16.635,2a4.629,4.629,0,0,0-1.326,4.726c.892,3.335,4.862,6.567,9.655,7.857.948.255,1.949.519,3.014.8,8.564,2.254,21.506,5.66,44.9,14.839,14.71,5.773,44.081,14.9,69.995,22.956,19.9,6.187,37.094,11.529,42.8,13.871,8.736,3.584,13.494,7.4,14.971,12.018,1.034,3.23.346,6.793-2.044,10.59a11.4,11.4,0,0,1-7.2,5.488,12.936,12.936,0,0,1-8.978-1.724l-41.871-24.591-.09-.075c-7.243-6.074-10.687-5.517-15.9-4.673a47.367,47.367,0,0,1-6.035.688c-3.943.147-7.659-2.847-11.6-6.016-7.018-5.648-11.662-8.673-16.957-3.048-2.626,2.789-3.676,5.369-3.123,7.667C-4650.19,495.794-4644.319,498.2-4643.43,498.547Z" transform="translate(4725.718 -408.92)" fill="#fff"></path>
    </g>
  </g>
</svg>

