<?xml version="1.0" encoding="UTF-8"?>
<svg xmlns="http://www.w3.org/2000/svg" xmlns:xlink="http://www.w3.org/1999/xlink" width="263" height="162" viewBox="0 0 263 162">
  <defs>
    <clipPath id="clip-path">
      <rect id="Rectangle_79" data-name="Rectangle 79" width="263" height="162" transform="translate(-2093 1085)" fill="none"></rect>
    </clipPath>
  </defs>
  <g id="Mask_Group_11" data-name="Mask Group 11" transform="translate(2093 -1085)" clip-path="url(#clip-path)">
    <g id="Group_66" data-name="Group 66" transform="translate(-2062 1113)">
      <path id="Path_141" data-name="Path 141" d="M-4685.892,952.04a4.424,4.424,0,0,1-.84-.08,5.673,5.673,0,0,1-3.82-3.206,34.633,34.633,0,0,1-3.289-8.469,3.014,3.014,0,0,1-.011-2.106c.546-1.588,2.274-2.974,5.136-4.119,5.465-2.186,13.554-6.394,17.782-9.885a50.512,50.512,0,0,0,4.441-4.718c5.1-5.809,12.806-14.587,23.026-19.067,13.411-5.879,17.121-5.462,17.728-5.321l.593.14.3.529c.008.013,1.16,1.909,2.707,1.914l46.014-.563.167.039a13.7,13.7,0,0,1,5.146,2.446c1.139-.8,3.725-4.292,5.862-7.963l.067-.115c.092-.267.416-1.579-.238-5.5-.218-1.309-.606-3.07-1.055-5.108-1.463-6.637-3.468-15.727-2.1-20.757,1.472-5.4,5.467-14.331,11.085-13.559,3.946.538,19.233,3.549,21.072,3.912a160.97,160.97,0,0,0,16.525-1.664c10.037-1.487,19.464-2.249,19.558-2.256l.07-.006h.071c.472.01,4.65.177,5.88,2.965.83,1.881.015,4.247-2.422,7.032-6.6,7.544-17.781,14.912-18.254,15.222l-.189.117c-.162.218-.874,1.51.567,5.953.386,1.191,1.561,4.812-6.3,24.327-3.529,8.758-7.341,16.885-7.915,18.1a12.768,12.768,0,0,1-7.128,8.693c-1.228.551-2.411.984-3.453,1.367-3.98,1.461-5.6,2.193-5.829,5.68a3.644,3.644,0,0,1-1.445,2.54c-6.286,5.313-35.974,7.205-45.2,6.25-10.852-1.123-34.426-7.81-35.425-8.093l-.317-.091-.148-.14a1.011,1.011,0,0,0-.75-.077c-.465.117-1.412.628-2.553,2.733-.422,1-2.593,4.175-12.674,1.512-9.245-2.442-19.087,2.817-19.185,2.871l-.184.083-20.02,7.414A5.438,5.438,0,0,1-4685.892,952.04Zm-5.342-12.8.061.1.046.229a31.724,31.724,0,0,0,3.04,7.842c.567,1.049,1.2,1.649,1.868,1.786a2.528,2.528,0,0,0,1.814-.519l.177-.141.224-.088,20.122-7.453c1.147-.607,11.2-5.7,21.147-3.069,7.518,1.986,9.216.274,9.388.066l.005-.016.056-.105c1.315-2.455,2.842-3.88,4.539-4.235a3.809,3.809,0,0,1,2.7.423c2.325.655,24.65,6.9,34.75,7.946,4.937.51,14.543.18,23.362-.8,10.147-1.133,17.527-2.926,19.742-4.8.351-.3.453-.5.458-.58.352-5.447,3.9-6.75,7.66-8.129,1.049-.385,2.133-.783,3.272-1.293a9.915,9.915,0,0,0,5.557-6.826l.033-.183.082-.175c6.274-13.192,15.667-35.857,14.156-40.514-1.178-3.631-1.334-6.32-.464-7.993a2.961,2.961,0,0,1,1.308-1.345c1.1-.731,11.551-7.762,17.588-14.662,2.315-2.646,2.092-3.772,1.969-4.054-.359-.818-2.161-1.25-3.312-1.294-.916.076-9.832.827-19.293,2.229a156.955,156.955,0,0,1-17.01,1.7l-.157,0-.153-.03c-.17-.034-17.037-3.367-21.066-3.917-2.626-.361-6.145,4.7-8,11.52-1.189,4.364.808,13.422,2.129,19.416.458,2.077.854,3.87,1.083,5.251.645,3.872.569,6.473-.218,7.567-1.989,3.409-5.639,9.072-8.1,9.391a2.025,2.025,0,0,1-1.73-.578,10.219,10.219,0,0,0-4.04-2.021l-45.687.56a6.157,6.157,0,0,1-4.682-2.644c-1.317.076-5.456.73-15.53,5.146-9.65,4.23-17.109,12.727-22.045,18.349a50.434,50.434,0,0,1-4.762,5.03c-4.446,3.673-12.863,8.062-18.525,10.327C-4690.721,937.879-4691.247,938.961-4691.234,939.244Zm0,.029Zm126.327-47.725Z" transform="translate(4694.036 -846.525)" fill="#fff"></path>
    </g>
  </g>
</svg>
