<?xml version="1.0" encoding="UTF-8"?>
<svg xmlns="http://www.w3.org/2000/svg" xmlns:xlink="http://www.w3.org/1999/xlink" width="263" height="162" viewBox="0 0 263 162">
  <defs>
    <clipPath id="clip-path">
      <rect id="Rectangle_82" data-name="Rectangle 82" width="263" height="162" transform="translate(-3034 1414)" fill="none"></rect>
    </clipPath>
  </defs>
  <g id="Mask_Group_12" data-name="Mask Group 12" transform="translate(3034 -1414)" clip-path="url(#clip-path)">
    <g id="Group_67" data-name="Group 67" transform="translate(-3011.477 1449.494)">
      <path id="Path_142" data-name="Path 142" d="M-4476.643,1287.624c-4.893,0-9.685-2.957-14.381-5.856-.833-.514-1.677-1.035-2.535-1.549a25.413,25.413,0,0,0-16.588-3.422l-.214.029-95.679,5.776-.083,0c-.337-.017-8.281-.5-10.745-7.891a9.128,9.128,0,0,1,.59-7.455,12.487,12.487,0,0,1,7.337-5.682c1.854-.462,13.75.173,33.122,1.277,9.6.547,18.676,1.064,23.564,1.2,5.011.139,5.624-.564,5.677-.644.354-.921-2.716-5.117-5.182-8.489-1.39-1.9-2.966-4.055-4.673-6.521-8.763-12.658-14.6-12.693-14.849-12.7-1.7.181-31.481,3.216-40.4-4.092a7,7,0,0,1-2.737-4.859c-.391-4.3.536-7.375,2.753-9.151,3.294-2.638,8.042-1.155,8.243-1.091l.221.071.19.134c7.222,5.095,18.79,10.966,21.9,8.068.9-.837,1.064-1.332,1.028-1.477-.37-1.464-7.45-3.317-13.139-4.807-1.915-.5-3.895-1.02-6.014-1.6-4.919-1.353-8.568-2.184-10.387-1.846-1.206.224-1.666.928-2.94,3.117-.535.92-1.143,1.963-1.969,3.173-5,7.3-9.82,8.182-10.023,8.216l-.156.026-.159-.007a198.949,198.949,0,0,1-25.429-3c-17.533-3.393-26.336-8.732-26.167-15.866.118-4.961,1.594-8.434,4.51-10.616,6.549-4.9,20.011-2.593,41.052,3.052,30.407,8.158,58.811,6.457,73.9,2.522a29.815,29.815,0,0,1,22.248,2.43,42.316,42.316,0,0,1,14.37,13.317c6.19,8.8,11.222,13.131,11.9,13.694,2.868,1.688,43.077,25.377,47.409,29.348a7.249,7.249,0,0,1,2.766,5.181c.115,3.568-2.887,7.4-8.468,13.223C-4470.118,1286.325-4473.4,1287.624-4476.643,1287.624Zm-30.162-14.13a28.835,28.835,0,0,1,14.809,4.119c.868.521,1.723,1.049,2.566,1.569,8.007,4.941,13.792,8.511,20.446,1.568,4.633-4.835,7.7-8.56,7.624-11.022a4.417,4.417,0,0,0-1.781-3.04c-3.331-3.053-32.2-20.324-47-29.03l-.178-.124c-.229-.182-5.659-4.576-12.559-14.381-6.309-8.965-17.219-18.766-33.366-14.555-15.442,4.028-44.468,5.784-75.45-2.527-19.628-5.266-32.906-7.7-38.443-3.555-2.121,1.588-3.2,4.288-3.292,8.257-.126,5.278,8.293,9.828,23.706,12.811a195.458,195.458,0,0,0,24.78,2.94c.659-.186,4.125-1.386,7.9-6.906.765-1.118,1.342-2.11,1.852-2.985,1.329-2.282,2.377-4.085,5.01-4.575,2.151-.4,5.117.079,11.749,1.9,2.1.578,4.072,1.094,5.978,1.593,9.353,2.449,14.5,3.8,15.314,7,.545,2.159-1.294,3.877-1.9,4.441-2.792,2.607-7.91,2.01-15.645-1.824a85.576,85.576,0,0,1-9.858-5.83c-.749-.193-3.5-.768-5.229.63-1.366,1.1-1.91,3.287-1.619,6.5a4.029,4.029,0,0,0,1.638,2.785c6.645,5.447,29.808,4.314,38.172,3.418.752-.08,7.676-.406,17.644,13.992,1.685,2.433,3.249,4.571,4.627,6.457,4.481,6.127,6.73,9.2,5.418,11.7-1.078,2.05-4.158,2.386-8.451,2.265-4.93-.141-14.023-.659-23.65-1.207-12.841-.732-30.426-1.733-32.224-1.36a9.531,9.531,0,0,0-5.4,4.194,6.08,6.08,0,0,0-.371,5.032c1.714,5.141,7.2,5.752,7.944,5.812l95.4-5.76A21.816,21.816,0,0,1-4506.8,1273.494Z" transform="translate(4676.471 -1197.408)" fill="#fff"></path>
    </g>
  </g>
</svg>
