<?xml version="1.0" encoding="UTF-8"?>
<svg xmlns="http://www.w3.org/2000/svg" xmlns:xlink="http://www.w3.org/1999/xlink" width="263" height="162" viewBox="0 0 263 162">
  <defs>
    <clipPath id="clip-path">
      <rect id="Rectangle_81" data-name="Rectangle 81" width="263" height="162" transform="translate(-2565 1414)" fill="none"></rect>
    </clipPath>
  </defs>
  <g id="Mask_Group_13" data-name="Mask Group 13" transform="translate(2565 -1414)" clip-path="url(#clip-path)">
    <g id="Group_69" data-name="Group 69" transform="translate(-2522.802 1428.487)">
      <path id="Path_144" data-name="Path 144" d="M-4567.374,1992.716a6.671,6.671,0,0,1-4.3-1.345c-2.559-2.054-2.306-5.585-2.225-6.309.083-3.031,2.276-82.977,2.717-103.744.3-14.175,1.57-18.16,3.517-20a5.349,5.349,0,0,1,4.285-1.21c.238.009.48.019.727.019a8.02,8.02,0,0,1,6.05,3.422c2.528,3.28,3.245,7.946,1.968,12.8a4.018,4.018,0,0,0,.445,3.712c1.622,2.03,5.853,2.338,7.343,2.285h.057c1.112,0,111.331-.443,127.518.456,16.172.9,18.486,7.1,18.8,8.52a89.589,89.589,0,0,1,4.591,23.974c.209,5.642-.839,9.7-3.114,12.062a6.06,6.06,0,0,1-3.958,1.97c-.84.06-19.323,1.384-29.878,2.264-10.825.9-11.68-.876-14.4-10.469-.3-1.042-.623-2.191-1-3.457-1.8-6.079-3.95-7.97-5.071-8.556a2.44,2.44,0,0,0-1.7-.3l-.4.2-.364-.088c-.426-.031-42.658-3.17-51.11-3.17-6.125,0-8.58,1.891-13.958,6.033-1.554,1.2-3.315,2.554-5.443,4.074-9.786,6.99-14.071,1.156-19.5-6.229-.753-1.025-1.532-2.086-2.38-3.2-2.1-2.762-4.124-4.14-5.408-3.69-1.535.542-4.048,4.468-3.734,15.745.4,14.56,7.011,16.434,7.292,16.507l.195.043.153.081c.547.264,13.473,6.543,20.835,13.445l.738.692c6.832,6.394,9.388,8.787,8.412,17.094a17.812,17.812,0,0,1-7.612,12.6l-.156.1-.173.061c-.217.077-21.878,7.753-33.511,12.227A17.841,17.841,0,0,1-4567.374,1992.716Zm3.185-129.17a1.451,1.451,0,0,0-1.11.289c-1.394,1.315-2.212,7.221-2.433,17.556-.448,21.073-2.7,103.022-2.721,103.848l-.019.209c0,.012-.271,2.258.966,3.237,1.191.944,3.726.741,7.136-.571,11.083-4.263,31.2-11.409,33.4-12.19a14.354,14.354,0,0,0,5.858-9.979c.774-6.573-.785-8.031-7.341-14.169l-.74-.693c-6.6-6.183-18.461-12.11-19.843-12.79-1.521-.464-9.276-3.617-9.722-19.708-.3-10.835,1.843-17.617,6.038-19.1,2.016-.713,5.266-.448,9.3,4.853.866,1.135,1.654,2.208,2.416,3.246,5.6,7.621,7.693,10.472,14.7,5.464,2.079-1.484,3.813-2.821,5.345-4,5.465-4.21,8.764-6.751,16.065-6.751,8.288,0,46.864,2.845,51.054,3.156a5.812,5.812,0,0,1,3.885.475c2.963,1.409,5.326,5.028,7.023,10.756.379,1.28.709,2.442,1.009,3.5,1.148,4.044,1.841,6.486,3.016,7.418,1.158.918,3.528.906,7.778.552,10.768-.9,29.758-2.255,29.948-2.269l.118-.008h0c1.444-.147,4.015-2.5,3.72-10.449a87.632,87.632,0,0,0-4.434-23.058l-.083-.232v-.078c-.15-.468-1.979-5.047-15.617-5.8-16-.889-125.022-.46-127.285-.45-.864.029-7.177.113-10.132-3.573-.986-1.23-1.978-3.4-1.094-6.755,1-3.811.505-7.388-1.364-9.813a4.762,4.762,0,0,0-3.314-2.077c-.292,0-.578-.011-.857-.021C-4563.776,1863.552-4564,1863.545-4564.189,1863.545Zm109.208,45.248Z" transform="translate(4573.95 -1860.091)" fill="#fff"></path>
    </g>
  </g>
</svg>
