<?xml version="1.0" encoding="UTF-8"?>
<svg xmlns="http://www.w3.org/2000/svg" xmlns:xlink="http://www.w3.org/1999/xlink" width="263" height="162" viewBox="0 0 263 162">
  <defs>
    <clipPath id="clip-path">
      <rect id="Rectangle_80" data-name="Rectangle 80" width="263" height="162" transform="translate(-2093 1414)" fill="none"></rect>
    </clipPath>
  </defs>
  <g id="Mask_Group_14" data-name="Mask Group 14" transform="translate(2093 -1414)" clip-path="url(#clip-path)">
    <g id="Group_68" data-name="Group 68" transform="translate(-2062 1445)">
      <path id="Path_143" data-name="Path 143" d="M-4643.21,1561.183c-9.217,0-23.953-2.385-30.557-16.457-7.12-15.167-9.1-38.6-9.4-42.806a19.432,19.432,0,0,0-3.409-2.3c-.977-.046-1.486-.766-3.142-4.286-.877-1.865-2.022-4.458-3.405-7.71-2.123-4.991-4.17-10.04-4.561-11.006a7.4,7.4,0,0,1-1.207-6.127c.794-2.689,3.369-4.776,7.653-6.2a81.058,81.058,0,0,1,20.163-4.054,1.881,1.881,0,0,1,.745-.008c1.085.2,3.1,1.337,8,8.959q.542.843,1.143,1.795c6.289,9.916,18,28.374,53.758,55.741l.376.287.1.368c.106.247.867,1.653,3.945.774,5.27-1.5,9.12-.279,11.768,3.748,1.207.588,8.016,1.8,43.832,1.555,20.384-.138,40.364-.693,40.563-.7l.131,0,.129.02c.29.046,7.113,1.183,8.9,5.952,1.128,3-.013,6.583-3.389,10.635-10.209,12.251-46.389,9.978-48.688,9.821l-72.28,1.344-.417-.7a6.371,6.371,0,0,1-.54-4.148c-.54.249-1.144.543-1.688.809-3.1,1.51-7.775,3.79-12.374,4.343A52.3,52.3,0,0,1-4643.21,1561.183Zm-42.54-64.226a20.293,20.293,0,0,1,4.821,3.171l.473.387.039.61c.017.264,1.737,26.542,9.186,42.411,3.142,6.694,8.691,11.2,16.494,13.386a46.256,46.256,0,0,0,17.337,1.122c4.13-.5,8.378-2.567,11.48-4.079,3.073-1.5,4.476-2.182,5.561-1.231a1.87,1.87,0,0,1,.425,2.154,5.911,5.911,0,0,0-.321,2.794l70.559-1.312.063,0c.369.025,36.993,2.474,46.4-8.815,1.844-2.212,3.847-5.37,2.921-7.85-.98-2.624-4.983-3.863-6.6-4.155-1.857.051-21.807.586-41.771.7-42.944.257-44.071-1.516-44.816-2.687-1.948-3.061-4.645-3.9-8.747-2.732-4.251,1.216-6.436-.657-7.18-2.118-35.933-27.548-47.769-46.208-54.134-56.244-.4-.629-.775-1.223-1.134-1.78-3.941-6.131-5.656-7.425-6.083-7.675h-.006a78.869,78.869,0,0,0-19.571,3.922c-3.3,1.1-5.325,2.595-5.845,4.32a4.713,4.713,0,0,0,.845,3.8l.122.155.079.19C-4691.371,1484.793-4686.954,1495.09-4685.75,1496.957Zm-.87,2.648Zm.157-2.788h0Zm0,0h0Z" transform="translate(4699.145 -1460.188)" fill="#fff"></path>
    </g>
  </g>
</svg>
