<?xml version="1.0" encoding="UTF-8"?>
<svg xmlns="http://www.w3.org/2000/svg" id="Group_63" data-name="Group 63" width="41.717" height="37.555" viewBox="0 0 41.717 37.555">
  <path id="Path_130" data-name="Path 130" d="M-3469.358,1074.324a15.983,15.983,0,0,1-6.7-2,42.177,42.177,0,0,1-9.14-6.67q-3.047-2.81-6.1-5.614a2.191,2.191,0,0,1-.73-2.224,2.092,2.092,0,0,1,1.576-1.622,2.158,2.158,0,0,1,2,.429q2.38,1.888,4.762,3.773c.1.079.2.2.307.217a.581.581,0,0,0,.447-.1.572.572,0,0,0,.02-.451c-.032-.106-.167-.185-.262-.27q-4.4-3.946-8.794-7.886a2.462,2.462,0,0,1-.953-1.645,2.2,2.2,0,0,1,1.207-2.209,2.188,2.188,0,0,1,2.491.349q3.995,3.569,7.982,7.147c.175.157.369.536.651.225s-.119-.464-.285-.631q-4.562-4.579-9.134-9.147a2.216,2.216,0,0,1-.049-3.2,2.211,2.211,0,0,1,3.167.044q4.43,4.408,8.846,8.833c.09.09.171.227.279.252.162.037.407.06.5-.031a.682.682,0,0,0,.107-.519c-.021-.137-.166-.256-.261-.38q-3.154-4.09-6.309-8.18a2.215,2.215,0,0,1,1.462-3.636,2.17,2.17,0,0,1,2.066.933q3.424,4.446,6.856,8.887a13.543,13.543,0,0,0,3.673,3.437,7.385,7.385,0,0,0,1.9.819,2.063,2.063,0,0,0,2.59-1.3,8.914,8.914,0,0,0,.417-1.335,7.4,7.4,0,0,1,4.637-5.274,2.077,2.077,0,0,1,1.654-.01,1.7,1.7,0,0,1,1.042,2.18,4.029,4.029,0,0,1-.386.893,13.207,13.207,0,0,0-1.623,9.3,23.194,23.194,0,0,1,.436,5.37,13.16,13.16,0,0,1-4.363,9.032A8.017,8.017,0,0,1-3469.358,1074.324Z" transform="translate(3499.069 -1036.772)" fill="#fff"></path>
  <path id="Path_131" data-name="Path 131" d="M-3286.866,1011.071a8.777,8.777,0,0,1,6.456,3.895,8.43,8.43,0,0,1,1.353,3.588c.042.3.137.652-.278.722-.467.079-.44-.334-.49-.629a7.8,7.8,0,0,0-4.953-6.262,13.318,13.318,0,0,0-1.884-.492c-.055-.014-.132,0-.165-.027-.139-.133-.377-.287-.367-.418C-3287.183,1011.3-3286.952,1011.161-3286.866,1011.071Z" transform="translate(3310.829 -1011.071)" fill="#fff"></path>
  <path id="Path_132" data-name="Path 132" d="M-3565.037,1288.554c.141-.123.267-.325.423-.351.3-.052.4.2.432.459a7.5,7.5,0,0,0,.954,2.93,7.822,7.822,0,0,0,5.813,3.987l.252.039c.26.041.435.174.382.455s-.271.351-.521.3a11.533,11.533,0,0,1-1.494-.313,8.6,8.6,0,0,1-6.125-7.047c-.023-.125-.029-.253-.044-.38Z" transform="translate(3565.037 -1264.623)" fill="#fff"></path>
  <path id="Path_133" data-name="Path 133" d="M-3285.32,1052.973c-.144.114-.274.3-.434.327-.279.053-.38-.165-.416-.419a4.761,4.761,0,0,0-1.937-3.272,4.758,4.758,0,0,0-2.145-.868c-.292-.045-.563-.122-.494-.486.063-.331.337-.325.609-.284a5.56,5.56,0,0,1,4.708,4.614c.017.1.025.2.039.295Z" transform="translate(3314.086 -1044.815)" fill="#fff"></path>
  <path id="Path_134" data-name="Path 134" d="M-3522.657,1290.186a5.581,5.581,0,0,1-4.771-3.823,9.113,9.113,0,0,1-.233-.991c-.05-.26,0-.506.305-.558s.417.151.459.426a4.682,4.682,0,0,0,2.821,3.771,7.746,7.746,0,0,0,1.385.386c.263.063.444.207.361.464C-3522.378,1290.018-3522.587,1290.122-3522.657,1290.186Z" transform="translate(3530.856 -1261.522)" fill="#fff"></path>
</svg>

