<?xml version="1.0" encoding="UTF-8"?>
<svg xmlns="http://www.w3.org/2000/svg" width="41.67" height="41.661" viewBox="0 0 41.67 41.661">
  <path id="instagram-brands" d="M20.765,41.974A10.681,10.681,0,1,0,31.446,52.655,10.664,10.664,0,0,0,20.765,41.974Zm0,17.625a6.944,6.944,0,1,1,6.944-6.944A6.957,6.957,0,0,1,20.765,59.6Zm13.61-18.062a2.491,2.491,0,1,1-2.491-2.491A2.486,2.486,0,0,1,34.374,41.537Zm7.074,2.529c-.158-3.337-.92-6.293-3.365-8.729s-5.392-3.2-8.729-3.365c-3.44-.2-13.749-.2-17.189,0-3.328.158-6.284.92-8.729,3.356S.239,40.719.071,44.056c-.2,3.44-.2,13.749,0,17.189.158,3.337.92,6.293,3.365,8.729s5.392,3.2,8.729,3.365c3.44.2,13.749.2,17.189,0,3.337-.158,6.293-.92,8.729-3.365s3.2-5.392,3.365-8.729C41.644,57.805,41.644,47.505,41.448,44.066ZM37,64.936a7.03,7.03,0,0,1-3.96,3.96c-2.742,1.088-9.25.837-12.28.837s-9.547.242-12.28-.837a7.03,7.03,0,0,1-3.96-3.96c-1.088-2.742-.837-9.25-.837-12.28s-.242-9.547.837-12.28a7.03,7.03,0,0,1,3.96-3.96c2.742-1.088,9.25-.837,12.28-.837s9.547-.242,12.28.837A7.03,7.03,0,0,1,37,40.375c1.088,2.742.837,9.25.837,12.28S38.093,62.2,37,64.936Z" transform="translate(0.075 -31.825)" fill="#fff"></path>
</svg>
