<?xml version="1.0" encoding="UTF-8"?>
<svg xmlns="http://www.w3.org/2000/svg" id="microphone" width="24.811" height="41.67" viewBox="0 0 24.811 41.67">
  <path id="Path_145" data-name="Path 145" d="M128.382,225.292a1.221,1.221,0,0,0-2.442,0,9.964,9.964,0,1,1-19.928,0,1.221,1.221,0,0,0-2.442,0,12.423,12.423,0,0,0,11.185,12.345v2.522h-1.231a6.131,6.131,0,0,0-6.124,6.124,1.221,1.221,0,0,0,1.221,1.221h14.711a1.221,1.221,0,0,0,1.221-1.221,6.131,6.131,0,0,0-6.124-6.124H117.2v-2.522A12.423,12.423,0,0,0,128.382,225.292ZM121.9,245.063H110.05a3.689,3.689,0,0,1,3.475-2.462h4.9A3.689,3.689,0,0,1,121.9,245.063Z" transform="translate(-103.571 -205.835)" fill="#fff"></path>
  <path id="Path_146" data-name="Path 146" d="M173.037,26.959a7.359,7.359,0,0,0,7.35-7.35V7.35a7.35,7.35,0,1,0-14.7,0V19.609A7.359,7.359,0,0,0,173.037,26.959Zm0-24.518a4.914,4.914,0,0,1,4.909,4.909v.005h-1.317a1.221,1.221,0,0,0,0,2.442h1.317v2.462h-1.317a1.221,1.221,0,0,0,0,2.442h1.317v2.462h-1.317a1.221,1.221,0,0,0,0,2.442h1.317v.005a4.909,4.909,0,0,1-9.817,0V19.6h1.317a1.221,1.221,0,1,0,0-2.442h-1.317V14.7h1.317a1.221,1.221,0,1,0,0-2.442h-1.317V9.8h1.317a1.221,1.221,0,1,0,0-2.442h-1.317V7.35a4.914,4.914,0,0,1,4.909-4.909Z" transform="translate(-160.632)" fill="#fff"></path>
</svg>
