<?xml version="1.0" encoding="UTF-8"?>
<svg xmlns="http://www.w3.org/2000/svg" id="like" width="21.54" height="22.274" viewBox="0 0 21.54 22.274">
  <g id="Group_40" data-name="Group 40" transform="translate(0 3.429)">
    <g id="Group_39" data-name="Group 39" transform="translate(0)">
      <path id="Path_125" data-name="Path 125" d="M29.978,87.224a2.051,2.051,0,0,0-2.049-2.049H24.215a6.508,6.508,0,0,0,.881-3.381v-.219h0a2.763,2.763,0,0,0-2.72-2.762h-.021a1.4,1.4,0,0,0-1.383,1.263c-.277,3.34-3.5,5.062-5.648,6.109v-.346a.654.654,0,0,0-.654-.654H9.092a.654.654,0,0,0-.654.654V97a.654.654,0,0,0,.654.654h4.184a2.05,2.05,0,0,0,1.833-1.135,15.527,15.527,0,0,0,6.675,1.143c.4,0,.8,0,1.22-.008.462,0,.939-.009,1.439-.009H26.51a2.048,2.048,0,0,0,1.764-3.09,2.047,2.047,0,0,0,.7-2.789,2.046,2.046,0,0,0,.445-3.13A2.041,2.041,0,0,0,29.978,87.224ZM14.017,95.6a.742.742,0,0,1-.741.741h-.741V94.206a.654.654,0,0,0-1.308,0v2.136H9.746v-9.85h4.271V95.6Zm12.518-6.328H27.9a.741.741,0,0,1,0,1.482h-1.37a.654.654,0,1,0,0,1.308h.672a.741.741,0,0,1,0,1.482h-.7a.654.654,0,0,0,0,1.308.741.741,0,1,1,0,1.482H24.443c-.506,0-.987,0-1.451.009-2.914.028-5.056.048-7.658-1.16v-7.55h0l.209-.1A18.476,18.476,0,0,0,19.574,85.1a7.127,7.127,0,0,0,2.7-4.913.1.1,0,0,1,.08-.063h0a1.462,1.462,0,0,1,1.432,1.456v.219a5.642,5.642,0,0,1-1.1,3.381h-1.04a.654.654,0,0,0,0,1.308h6.276a.741.741,0,0,1,0,1.482H26.535a.654.654,0,0,0,0,1.308Z" transform="translate(-8.438 -78.812)" fill="#9d000c"></path>
    </g>
  </g>
  <g id="Group_42" data-name="Group 42" transform="translate(18.132 4.832)">
    <g id="Group_41" data-name="Group 41">
      <path id="Path_126" data-name="Path 126" d="M427.268,111.062h-1.395a.654.654,0,1,0,0,1.308h1.395a.654.654,0,0,0,0-1.308Z" transform="translate(-425.219 -111.062)" fill="#9d000c"></path>
    </g>
  </g>
  <g id="Group_44" data-name="Group 44" transform="translate(8.368 4.832)">
    <g id="Group_43" data-name="Group 43">
      <path id="Path_127" data-name="Path 127" d="M202.848,111.062h-1.395a.654.654,0,1,0,0,1.308h1.395a.654.654,0,0,0,0-1.308Z" transform="translate(-200.799 -111.062)" fill="#9d000c"></path>
    </g>
  </g>
  <g id="Group_46" data-name="Group 46" transform="translate(11.158 0)">
    <g id="Group_45" data-name="Group 45">
      <path id="Path_128" data-name="Path 128" d="M266.834,1.535l-.7-1.208A.654.654,0,0,0,265,.981l.7,1.208a.654.654,0,0,0,1.132-.654Z" transform="translate(-264.917 0)" fill="#9d000c"></path>
    </g>
  </g>
  <g id="Group_48" data-name="Group 48" transform="translate(16.039 0)">
    <g id="Group_47" data-name="Group 47" transform="translate(0 0)">
      <path id="Path_129" data-name="Path 129" d="M378.8.088a.654.654,0,0,0-.893.239l-.7,1.208a.654.654,0,1,0,1.132.654l.7-1.208A.654.654,0,0,0,378.8.088Z" transform="translate(-377.126 0)" fill="#9d000c"></path>
    </g>
  </g>
</svg>
