<?xml version="1.0" encoding="UTF-8"?>
<svg xmlns="http://www.w3.org/2000/svg" width="52.605" height="36.988" viewBox="0 0 52.605 36.988">
  <path id="youtube-brands" d="M66.439,69.787a6.61,6.61,0,0,0-4.651-4.681C57.686,64,41.235,64,41.235,64s-16.45,0-20.552,1.106a6.61,6.61,0,0,0-4.651,4.681c-1.1,4.129-1.1,12.744-1.1,12.744s0,8.615,1.1,12.744a6.511,6.511,0,0,0,4.651,4.606c4.1,1.106,20.552,1.106,20.552,1.106s16.45,0,20.552-1.106a6.511,6.511,0,0,0,4.651-4.606c1.1-4.129,1.1-12.744,1.1-12.744S67.538,73.916,66.439,69.787ZM35.855,90.353V74.71L49.6,82.532,35.855,90.353Z" transform="translate(-14.933 -64)" fill="#fff"></path>
</svg>
